<svg width="130" height="33" viewBox="0 0 130 33" fill="none" xmlns="http://www.w3.org/2000/svg">
<path d="M72.8373 31.76L75.3453 24.956L75.3813 26.972L69.7053 13.04H71.5773L76.2333 24.692H75.4653L79.7613 13.04H81.5613L74.6013 31.76H72.8373Z" fill="#0E54BE"/>
<path d="M63.6288 26.36C62.3648 26.36 61.2688 26.08 60.3408 25.52C59.4208 24.96 58.7048 24.172 58.1928 23.156C57.6808 22.14 57.4248 20.948 57.4248 19.58C57.4248 18.164 57.6768 16.94 58.1808 15.908C58.6848 14.876 59.3928 14.08 60.3048 13.52C61.2248 12.96 62.3088 12.68 63.5568 12.68C64.8368 12.68 65.9288 12.976 66.8328 13.568C67.7368 14.152 68.4208 14.992 68.8848 16.088C69.3488 17.184 69.5608 18.492 69.5208 20.012H67.7208V19.388C67.6888 17.708 67.3248 16.44 66.6288 15.584C65.9408 14.728 64.9328 14.3 63.6048 14.3C62.2128 14.3 61.1448 14.752 60.4008 15.656C59.6648 16.56 59.2968 17.848 59.2968 19.52C59.2968 21.152 59.6648 22.42 60.4008 23.324C61.1448 24.22 62.1968 24.668 63.5568 24.668C64.4848 24.668 65.2928 24.456 65.9808 24.032C66.6768 23.6 67.2248 22.98 67.6248 22.172L69.2688 22.808C68.7568 23.936 68.0008 24.812 67.0008 25.436C66.0088 26.052 64.8848 26.36 63.6288 26.36ZM58.6728 20.012V18.536H68.5728V20.012H58.6728Z" fill="#0E54BE"/>
<path d="M47.4209 26L47.4329 8.72H49.2089V19.28L54.9929 13.04H57.3449L51.2729 19.52L58.1369 26H55.5689L49.2089 19.76V26H47.4209Z" fill="#0E54BE"/>
<path d="M43.5029 26V19.388C43.5029 18.668 43.4349 18.008 43.2989 17.408C43.1629 16.8 42.9429 16.272 42.6389 15.824C42.3429 15.368 41.9549 15.016 41.4749 14.768C41.0029 14.52 40.4269 14.396 39.7469 14.396C39.1229 14.396 38.5709 14.504 38.0909 14.72C37.6189 14.936 37.2189 15.248 36.8909 15.656C36.5709 16.056 36.3269 16.544 36.1589 17.12C35.9909 17.696 35.9069 18.352 35.9069 19.088L34.6589 18.812C34.6589 17.484 34.8909 16.368 35.3549 15.464C35.8189 14.56 36.4589 13.876 37.2749 13.412C38.0909 12.948 39.0269 12.716 40.0829 12.716C40.8589 12.716 41.5349 12.836 42.1109 13.076C42.6949 13.316 43.1869 13.64 43.5869 14.048C43.9949 14.456 44.3229 14.924 44.5709 15.452C44.8189 15.972 44.9989 16.528 45.1109 17.12C45.2229 17.704 45.2789 18.288 45.2789 18.872V26H43.5029ZM34.1309 26V13.04H35.7269V16.232H35.9069V26H34.1309Z" fill="#0E54BE"/>
<path d="M26.3117 26.36C25.0237 26.36 23.9237 26.068 23.0117 25.484C22.0997 24.9 21.3997 24.092 20.9117 23.06C20.4237 22.028 20.1797 20.844 20.1797 19.508C20.1797 18.148 20.4277 16.956 20.9237 15.932C21.4197 14.908 22.1237 14.112 23.0357 13.544C23.9557 12.968 25.0477 12.68 26.3117 12.68C27.6077 12.68 28.7117 12.972 29.6237 13.556C30.5437 14.132 31.2437 14.936 31.7237 15.968C32.2117 16.992 32.4557 18.172 32.4557 19.508C32.4557 20.868 32.2117 22.064 31.7237 23.096C31.2357 24.12 30.5317 24.92 29.6117 25.496C28.6917 26.072 27.5917 26.36 26.3117 26.36ZM26.3117 24.668C27.7517 24.668 28.8237 24.192 29.5277 23.24C30.2317 22.28 30.5837 21.036 30.5837 19.508C30.5837 17.94 30.2277 16.692 29.5157 15.764C28.8117 14.836 27.7437 14.372 26.3117 14.372C25.3437 14.372 24.5437 14.592 23.9117 15.032C23.2877 15.464 22.8197 16.068 22.5077 16.844C22.2037 17.612 22.0517 18.5 22.0517 19.508C22.0517 21.068 22.4117 22.32 23.1317 23.264C23.8517 24.2 24.9117 24.668 26.3117 24.668Z" fill="#0E54BE"/>
<path d="M1.67993 26V8.72H3.29993L10.0919 23.252L16.8479 8.72H18.4919V25.988H16.8119V12.656L10.6559 26H9.51593L3.37193 12.656V26H1.67993Z" fill="#0E54BE"/>
<path d="M122.085 26.36C120.805 26.36 119.649 26.136 118.617 25.688C117.593 25.232 116.749 24.584 116.085 23.744C115.429 22.896 115.013 21.888 114.837 20.72L118.245 20.216C118.485 21.208 118.981 21.972 119.733 22.508C120.485 23.044 121.341 23.312 122.301 23.312C122.837 23.312 123.357 23.228 123.861 23.06C124.365 22.892 124.777 22.644 125.097 22.316C125.425 21.988 125.589 21.584 125.589 21.104C125.589 20.928 125.561 20.76 125.505 20.6C125.457 20.432 125.373 20.276 125.253 20.132C125.133 19.988 124.961 19.852 124.737 19.724C124.521 19.596 124.245 19.48 123.909 19.376L119.421 18.056C119.085 17.96 118.693 17.824 118.245 17.648C117.805 17.472 117.377 17.22 116.961 16.892C116.545 16.564 116.197 16.132 115.917 15.596C115.645 15.052 115.509 14.368 115.509 13.544C115.509 12.384 115.801 11.42 116.385 10.652C116.969 9.88399 117.749 9.31199 118.725 8.93599C119.701 8.55999 120.781 8.37599 121.965 8.38399C123.157 8.39999 124.221 8.60399 125.157 8.99599C126.093 9.38799 126.877 9.95999 127.509 10.712C128.141 11.456 128.597 12.368 128.877 13.448L125.349 14.048C125.221 13.488 124.985 13.016 124.641 12.632C124.297 12.248 123.885 11.956 123.405 11.756C122.933 11.556 122.437 11.448 121.917 11.432C121.405 11.416 120.921 11.488 120.465 11.648C120.017 11.8 119.649 12.024 119.361 12.32C119.081 12.616 118.941 12.968 118.941 13.376C118.941 13.752 119.057 14.06 119.289 14.3C119.521 14.532 119.813 14.72 120.165 14.864C120.517 15.008 120.877 15.128 121.245 15.224L124.245 16.04C124.693 16.16 125.189 16.32 125.733 16.52C126.277 16.712 126.797 16.984 127.293 17.336C127.797 17.68 128.209 18.136 128.529 18.704C128.857 19.272 129.021 19.992 129.021 20.864C129.021 21.792 128.825 22.604 128.433 23.3C128.049 23.988 127.529 24.56 126.873 25.016C126.217 25.464 125.473 25.8 124.641 26.024C123.817 26.248 122.965 26.36 122.085 26.36Z" fill="#D89403"/>
<path d="M105.745 26.36C104.017 26.36 102.525 25.984 101.269 25.232C100.021 24.48 99.0574 23.428 98.3774 22.076C97.7054 20.724 97.3694 19.152 97.3694 17.36C97.3694 15.568 97.7054 13.996 98.3774 12.644C99.0574 11.292 100.021 10.24 101.269 9.488C102.525 8.736 104.017 8.36 105.745 8.36C107.473 8.36 108.961 8.736 110.209 9.488C111.465 10.24 112.429 11.292 113.101 12.644C113.781 13.996 114.121 15.568 114.121 17.36C114.121 19.152 113.781 20.724 113.101 22.076C112.429 23.428 111.465 24.48 110.209 25.232C108.961 25.984 107.473 26.36 105.745 26.36ZM105.745 23.288C106.841 23.304 107.753 23.068 108.481 22.58C109.209 22.092 109.753 21.4 110.113 20.504C110.481 19.608 110.665 18.56 110.665 17.36C110.665 16.16 110.481 15.12 110.113 14.24C109.753 13.36 109.209 12.676 108.481 12.188C107.753 11.7 106.841 11.448 105.745 11.432C104.649 11.416 103.737 11.652 103.009 12.14C102.281 12.628 101.733 13.32 101.365 14.216C101.005 15.112 100.825 16.16 100.825 17.36C100.825 18.56 101.005 19.6 101.365 20.48C101.733 21.36 102.281 22.044 103.009 22.532C103.737 23.02 104.649 23.272 105.745 23.288Z" fill="#D89403"/>
<path d="M83.6799 26V8.72H90.9759C91.1439 8.72 91.3679 8.728 91.6479 8.744C91.9359 8.752 92.1919 8.776 92.4159 8.816C93.4479 8.976 94.2919 9.316 94.9479 9.836C95.6119 10.356 96.0999 11.012 96.4119 11.804C96.7239 12.588 96.8799 13.464 96.8799 14.432C96.8799 15.4 96.7199 16.28 96.3999 17.072C96.0879 17.856 95.5999 18.508 94.9359 19.028C94.2799 19.548 93.4399 19.888 92.4159 20.048C92.1919 20.08 91.9359 20.104 91.6479 20.12C91.3599 20.136 91.1359 20.144 90.9759 20.144H86.9439V26H83.6799ZM86.9439 17.096H90.8319C90.9999 17.096 91.1839 17.088 91.3839 17.072C91.5839 17.056 91.7679 17.024 91.9359 16.976C92.3759 16.856 92.7159 16.656 92.9559 16.376C93.1959 16.088 93.3599 15.772 93.4479 15.428C93.5439 15.076 93.5919 14.744 93.5919 14.432C93.5919 14.12 93.5439 13.792 93.4479 13.448C93.3599 13.096 93.1959 12.78 92.9559 12.5C92.7159 12.212 92.3759 12.008 91.9359 11.888C91.7679 11.84 91.5839 11.808 91.3839 11.792C91.1839 11.776 90.9999 11.768 90.8319 11.768H86.9439V17.096Z" fill="#D89403"/>
</svg>
